<svg id="Layer_1" data-name="Layer 1" xmlns="http://www.w3.org/2000/svg" xmlns:xlink="http://www.w3.org/1999/xlink" viewBox="0 0 1080 1080"><defs><style>.cls-1,.cls-2{fill:#fff;}.cls-2,.cls-3{font-size:60px;font-family:FodaFreeFont, Foda Free Font;}.cls-3{fill:none;}.cls-3,.cls-4{stroke:#fff;stroke-miterlimit:10;}.cls-4{fill:url(#linear-gradient);}</style><linearGradient id="linear-gradient" x1="306.43" y1="540" x2="774.43" y2="540" gradientUnits="userSpaceOnUse"><stop offset="0" stop-color="#8f35ea"/><stop offset="1" stop-color="#6945ea"/></linearGradient></defs><g id="Grouped"><path class="cls-1" d="M516,405.39c-8.26-15.17-6.36-27.73,5.93-38.39,9.25-8,24.66-8.19,35.29-.39,12.75,9.36,14.46,20.21,6.11,39.31,8.34,2.82,17.08,4.78,24.92,8.61,29.18,14.26,52.51,34.72,59.4,67.84,3.43,16.45,2.75,33.85,3,50.83.42,28-.08,56,.17,84,.15,16-4.41,29.8-16.59,40.56-2.86,2.52-3.39,4.92-1.74,8.42,11.9,25.24-13.24,52.74-35.57,52.58-37.27-.27-74.55-.48-111.81.36-24.89.56-46.79-26.3-37-52.71,1-2.57,1.16-4.19-1.42-6.23-10.71-8.48-16-20.26-17.17-33.4-1.06-11.44-.49-23-.45-34.57.11-29.51.05-59,.56-88.53.72-42,23-69.92,59.21-88.06C497.41,411.35,506.8,408.81,516,405.39ZM513,658c17.31,0,34.28,0,51.26,0,3.85,0,3.56-2.5,3.55-5,0-11.16-.06-22.32-.17-33.49-.21-23.26-.34-46.52-.78-69.78-.2-11-6.77-18-16.32-21.83-9.8-4-19.14-3.7-28.12,3.71-8.46,7-11.4,15.23-11.18,25.78.67,31.78.9,63.57,1.33,95.35C512.58,654.47,512.83,656.12,513,658Zm-20.47-.86c.19-2.76.48-5,.49-7.22.08-32.49.33-65-.05-97.47-.06-5-2.38-10.27-4.86-14.75-5.19-9.38-13.15-12.83-22.11-10.69-8.73,2.09-17.13,11.74-17.22,20.84-.24,24.75-.61,49.51,0,74.24.41,15.19,10,25.57,21.83,33.93a5.92,5.92,0,0,0,3.15,1.07C479.82,657.23,485.84,657.18,492.52,657.18Zm95.26.1c23.35,1.53,29-1.29,39-20.55a36.41,36.41,0,0,0,3.81-15.09c.6-15.85.52-31.74.56-47.62,0-8.88.42-17.83-.55-26.62-1-9.51-6-17.27-15.34-20.82-7-2.65-13.56-.55-18.67,4.74-5.38,5.56-8.66,12.08-8.64,20.26.09,31.76-.11,63.51-.2,95.27Zm26.58,19.13H467.28c-.64,12.14,9.3,23,20.37,23q52.77-.1,105.54-.26C605.57,699.13,614.92,689.09,614.36,676.41ZM510.61,490.46h58.7a71.85,71.85,0,0,0-12.19-40.32c-5.62-8.42-11.1-16.92-16.8-25.62C523.35,443.07,510.25,463.29,510.61,490.46Zm5.63-64.41c-28.28,3.57-68.2,43-66,64.37h42.24C493,466.34,499.54,444.54,516.24,426.05Zm48.67.9c15.64,19.06,23,40.05,23.29,63.54h42C630.79,468.79,593.13,431.59,564.91,427Zm-53.24,109.8c7.57-11,16.58-18,29.29-18.45,13-.48,20.84,7.74,28,17.3.43-8.57.87-17.15,1.31-25.69H511.67Zm76.34-4c6.58-8.19,13.38-13,22.31-14.1,10.13-1.2,15.23,6.46,21.9,14.33.52-9,.92-16,1.29-22.43H588ZM494.57,510H449.09v22.65A31.74,31.74,0,0,1,471.42,517c9.08-1.54,15.3,7,22.14,14.68C493.94,523.52,494.25,516.84,494.57,510Zm45.26-130.69c-5.83.09-11.28,5.16-11.28,10.49,0,6.08,6.38,13.43,11.65,13.42,4.3,0,11.43-7.81,11.39-12.47C551.55,384.82,545.83,379.26,539.83,379.35Z"/><path class="cls-1" d="M718.86,550.19v.07c7.92,0,15.84,0,23.76,0,4.41,0,7.9-4.14,7.91-9.09,0-5.16-2.19-7.39-7.72-7.29-15.64.28-31.28.75-46.93,1-5.27.09-7.49,2.81-7.42,7.81s2.62,7.55,7.78,7.48C703.78,550.12,711.32,550.19,718.86,550.19Zm-358.07.11v.18H383.4c4.52,0,9.05-3.51,9.37-7.29.37-4.3-3.56-8.3-8.66-8.41q-22.61-.51-45.22-.77c-4.84-.06-8.58,3.43-8.56,7.67a8.47,8.47,0,0,0,8.41,8.6C346.09,550.35,353.44,550.3,360.79,550.3Zm-17.35,47.24c-.08,8.22,3.69,11,10.91,8.38,11.68-4.27,23.34-8.6,35-12.88,5.64-2.07,7.84-5.7,6.1-10.18s-5.6-5.84-11.25-4c-11.61,3.88-23.2,7.8-34.91,11.37C345.22,591.53,343.11,593.59,343.44,597.54Zm391,.18c-.51-5.79-2-7.15-8.88-8.94-10.53-2.74-21-5.56-31.45-8.78-4.21-1.3-6.48,0-8.15,3.57-2.7,5.72-.57,10.47,6.08,12.75q17,5.83,34.25,11.18a4.63,4.63,0,0,0,4.15-1.34C732.09,603.57,733.13,600.56,734.42,597.72Zm-379.59-122c-1.55,2.43-3.78,5.06-5,8.1-1.67,4.07.6,7.07,4.3,8.54,11.36,4.52,22.77,8.92,34.29,13,1.66.59,4.54-.23,6-1.43,5.34-4.45,4-10.5-3.07-13.6-10.68-4.65-21.53-8.91-32.32-13.33C358.12,476.7,357.19,476.49,354.83,475.77ZM684.1,495.29c.1,7.2,4.38,10.73,9,9,11.65-4.39,23.23-9,34.78-13.59,4.33-1.73,5.23-5.14,3.65-9.3s-4.65-6.48-8.84-5c-11.18,4-22.3,8.28-33.18,13C686.87,490.57,685.23,494,684.1,495.29ZM672.35,617.84c-2,1.85-4.78,3.27-5.83,5.48-2.14,4.51,0,8.56,3.46,11.6,7.49,6.62,15,13.22,22.94,19.31,1.61,1.24,5.51,1.12,7.42,0,6-3.44,6.22-9.41,1-13.89q-11.55-9.93-23.28-19.67C676.71,619.57,674.85,619.06,672.35,617.84ZM420.85,455.56c-2.4-3-3.8-5.43-5.84-7.11q-12.27-10-24.92-19.59c-1.42-1.07-4.06-1.89-5.53-1.3-5.57,2.25-6.81,10.66-2.12,14.47,8.35,6.78,16.9,13.31,25.55,19.7,1.57,1.16,4.73,2.2,5.9,1.42C416.48,461.44,418.27,458.52,420.85,455.56Zm-7.33,169.19c-2-2.36-3.46-5.24-5.67-6.13-1.9-.78-5.28,0-7.05,1.34-7.32,5.58-14.29,11.62-21.35,17.54a16.69,16.69,0,0,0-3.58,3.59c-2.71,4.35-1.53,8.62,1.85,11.74,1.38,1.28,5.45,1.77,6.74.72,8.59-7,16.84-14.51,25-22.06C411.12,630,411.92,627.47,413.52,624.75ZM660,454c2.42,3.06,4.12,6.28,6.78,8.06,1.08.73,4.5-1.34,6.43-2.73,3.66-2.64,7-5.67,10.49-8.61,4.58-3.92,9.25-7.76,13.61-11.92,4-3.78,1.24-7.29-1.27-10.39-2-2.52-4.54-3.07-7.35-.7-8.06,6.79-16.26,13.41-24.27,20.26C662.88,449.29,661.92,451.35,660,454ZM456.1,416.27c-1.58-3.68-2.3-6-3.53-8.11-3.37-5.65-7-11.11-10.42-16.75-2.24-3.72-4.89-5.75-9.21-3.3s-5.94,6.47-3.61,10.77c3.75,6.94,7.92,13.66,11.85,20.51,1.72,3,4,5.78,7.54,3.75C451.64,421.47,453.8,418.48,456.1,416.27Zm168-.6c2.05,2.16,4,5.19,6.76,6.68,1.16.62,4.79-1.51,6.06-3.28,4.83-6.72,9.26-13.74,13.64-20.78,2.33-3.73,1.77-7.34-2-9.85s-7.33-1.24-9.77,2.29c-4.29,6.2-8.38,12.55-12.42,18.91C625.53,411,625.21,412.74,624.14,415.67Z"/><path class="cls-1" d="M360.79,550.3c-7.35,0-14.7.05-22.05,0a8.47,8.47,0,0,1-8.41-8.6c0-4.24,3.72-7.73,8.56-7.67q22.62.29,45.22.77c5.1.11,9,4.11,8.66,8.41-.32,3.78-4.85,7.29-9.37,7.29H360.79Z"/><path class="cls-1" d="M343.44,597.54c-.33-3.95,1.78-6,5.87-7.26,11.71-3.57,23.3-7.49,34.91-11.37,5.65-1.89,9.47-.65,11.25,4S395,591,389.37,593c-11.68,4.28-23.34,8.61-35,12.88C347.13,608.55,343.36,605.76,343.44,597.54Z"/><path class="cls-1" d="M354.83,475.77c2.36.72,3.29.93,4.16,1.28,10.79,4.42,21.64,8.68,32.32,13.33,7.1,3.1,8.41,9.15,3.07,13.6-1.45,1.2-4.33,2-6,1.43-11.52-4.08-22.93-8.48-34.29-13-3.7-1.47-6-4.47-4.3-8.54C351.05,480.83,353.28,478.2,354.83,475.77Z"/><path class="cls-1" d="M420.85,455.56c-2.58,3-4.37,5.88-7,7.59-1.17.78-4.33-.26-5.9-1.42-8.65-6.39-17.2-12.92-25.55-19.7-4.69-3.81-3.45-12.22,2.12-14.47,1.47-.59,4.11.23,5.53,1.3q12.66,9.56,24.92,19.59C417.05,450.13,418.45,452.59,420.85,455.56Z"/><path class="cls-1" d="M456.1,416.27c-2.3,2.21-4.46,5.2-7.38,6.87-3.57,2-5.82-.74-7.54-3.75-3.93-6.85-8.1-13.57-11.85-20.51-2.33-4.3-.78-8.29,3.61-10.77s7-.42,9.21,3.3c3.38,5.64,7.05,11.1,10.42,16.75C453.8,410.22,454.52,412.59,456.1,416.27Z"/></g><text class="cls-2" transform="translate(360.28 548.83)">ثيداحلا ةاكشم</text><text class="cls-3" transform="translate(360.28 548.83)">ثيداحلا ةاكشم</text><path d="M632.15,258.37A171.77,171.77,0,0,1,803.92,430.14V649.86A171.77,171.77,0,0,1,632.15,821.63H448.71A171.77,171.77,0,0,1,276.94,649.86V430.14A171.77,171.77,0,0,1,448.71,258.37H632.15m0-1H448.71A172.77,172.77,0,0,0,275.94,430.14V649.86A172.77,172.77,0,0,0,448.71,822.63H632.15A172.77,172.77,0,0,0,804.92,649.86V430.14A172.77,172.77,0,0,0,632.15,257.37Z"/><path class="cls-4" d="M621.58,281.64H459.28c-84.42,0-152.85,70.7-152.85,157.93V640.43c0,87.22,68.43,157.93,152.85,157.93h162.3c84.41,0,152.85-70.71,152.85-157.93V439.57C774.43,352.34,706,281.64,621.58,281.64Z"/><path class="cls-1" d="M516,405.39c-8.26-15.17-6.36-27.73,5.93-38.39,9.25-8,24.66-8.19,35.29-.39,12.75,9.36,14.46,20.21,6.11,39.31,8.34,2.82,17.08,4.78,24.92,8.61,29.18,14.26,52.51,34.72,59.4,67.84,3.43,16.45,2.75,33.85,3,50.83.42,28-.08,56,.17,84,.15,16-4.41,29.8-16.59,40.56-2.86,2.52-3.39,4.92-1.74,8.42,11.9,25.24-13.24,52.74-35.57,52.58-37.27-.27-74.55-.48-111.81.36-24.89.56-46.79-26.3-37-52.71,1-2.57,1.16-4.19-1.42-6.23-10.71-8.48-16-20.26-17.17-33.4-1.06-11.44-.49-23-.45-34.57.11-29.51.05-59,.56-88.53.72-42,23-69.92,59.21-88.06C497.41,411.35,506.8,408.81,516,405.39ZM513,658c17.31,0,34.28,0,51.26,0,3.85,0,3.56-2.5,3.55-5,0-11.16-.06-22.32-.17-33.49-.21-23.26-.34-46.52-.78-69.78-.2-11-6.77-18-16.32-21.83-9.8-4-19.14-3.7-28.12,3.71-8.46,7-11.4,15.23-11.18,25.78.67,31.78.9,63.57,1.33,95.35C512.58,654.47,512.83,656.12,513,658Zm-20.47-.86c.19-2.76.48-5,.49-7.22.08-32.49.33-65-.05-97.47-.06-5-2.38-10.27-4.86-14.75-5.19-9.38-13.15-12.83-22.11-10.69-8.73,2.09-17.13,11.74-17.22,20.84-.24,24.75-.61,49.51,0,74.24.41,15.19,10,25.57,21.83,33.93a5.92,5.92,0,0,0,3.15,1.07C479.82,657.23,485.84,657.18,492.52,657.18Zm95.26.1c23.35,1.53,29-1.29,39-20.55a36.41,36.41,0,0,0,3.81-15.09c.6-15.85.52-31.74.56-47.62,0-8.88.42-17.83-.55-26.62-1-9.51-6-17.27-15.34-20.82-7-2.65-13.56-.55-18.67,4.74-5.38,5.56-8.66,12.08-8.64,20.26.09,31.76-.11,63.51-.2,95.27Zm26.58,19.13H467.28c-.64,12.14,9.3,23,20.37,23q52.77-.1,105.54-.26C605.57,699.13,614.92,689.09,614.36,676.41ZM510.61,490.46h58.7a71.85,71.85,0,0,0-12.19-40.32c-5.62-8.42-11.1-16.92-16.8-25.62C523.35,443.07,510.25,463.29,510.61,490.46Zm5.63-64.41c-28.28,3.57-68.2,43-66,64.37h42.24C493,466.34,499.54,444.54,516.24,426.05Zm48.67.9c15.64,19.06,23,40.05,23.29,63.54h42C630.79,468.79,593.13,431.59,564.91,427Zm-53.24,109.8c7.57-11,16.58-18,29.29-18.45,13-.48,20.84,7.74,28,17.3.43-8.57.87-17.15,1.31-25.69H511.67Zm76.34-4c6.58-8.19,13.38-13,22.31-14.1,10.13-1.2,15.23,6.46,21.9,14.33.52-9,.92-16,1.29-22.43H588ZM494.57,510H449.09v22.65A31.74,31.74,0,0,1,471.42,517c9.08-1.54,15.3,7,22.14,14.68C493.94,523.52,494.25,516.84,494.57,510Zm45.26-130.69c-5.83.09-11.28,5.16-11.28,10.49,0,6.08,6.38,13.43,11.65,13.42,4.3,0,11.43-7.81,11.39-12.47C551.55,384.82,545.83,379.26,539.83,379.35Z"/><path class="cls-1" d="M718.86,550.19v.07c7.92,0,15.84,0,23.76,0,4.41,0,7.9-4.14,7.91-9.09,0-5.16-2.19-7.39-7.72-7.29-15.64.28-31.28.75-46.93,1-5.27.09-7.49,2.81-7.42,7.81s2.62,7.55,7.78,7.48C703.78,550.12,711.32,550.19,718.86,550.19Zm-358.07.11v.18H383.4c4.52,0,9.05-3.51,9.37-7.29.37-4.3-3.56-8.3-8.66-8.41q-22.61-.51-45.22-.77c-4.84-.06-8.58,3.43-8.56,7.67a8.47,8.47,0,0,0,8.41,8.6C346.09,550.35,353.44,550.3,360.79,550.3Zm-17.35,47.24c-.08,8.22,3.69,11,10.91,8.38,11.68-4.27,23.34-8.6,35-12.88,5.64-2.07,7.84-5.7,6.1-10.18s-5.6-5.84-11.25-4c-11.61,3.88-23.2,7.8-34.91,11.37C345.22,591.53,343.11,593.59,343.44,597.54Zm391,.18c-.51-5.79-2-7.15-8.88-8.94-10.53-2.74-21-5.56-31.45-8.78-4.21-1.3-6.48,0-8.15,3.57-2.7,5.72-.57,10.47,6.08,12.75q17,5.83,34.25,11.18a4.63,4.63,0,0,0,4.15-1.34C732.09,603.57,733.13,600.56,734.42,597.72Zm-379.59-122c-1.55,2.43-3.78,5.06-5,8.1-1.67,4.07.6,7.07,4.3,8.54,11.36,4.52,22.77,8.92,34.29,13,1.66.59,4.54-.23,6-1.43,5.34-4.45,4-10.5-3.07-13.6-10.68-4.65-21.53-8.91-32.32-13.33C358.12,476.7,357.19,476.49,354.83,475.77ZM684.1,495.29c.1,7.2,4.38,10.73,9,9,11.65-4.39,23.23-9,34.78-13.59,4.33-1.73,5.23-5.14,3.65-9.3s-4.65-6.48-8.84-5c-11.18,4-22.3,8.28-33.18,13C686.87,490.57,685.23,494,684.1,495.29ZM672.35,617.84c-2,1.85-4.78,3.27-5.83,5.48-2.14,4.51,0,8.56,3.46,11.6,7.49,6.62,15,13.22,22.94,19.31,1.61,1.24,5.51,1.12,7.42,0,6-3.44,6.22-9.41,1-13.89q-11.55-9.93-23.28-19.67C676.71,619.57,674.85,619.06,672.35,617.84ZM420.85,455.56c-2.4-3-3.8-5.43-5.84-7.11q-12.27-10-24.92-19.59c-1.42-1.07-4.06-1.89-5.53-1.3-5.57,2.25-6.81,10.66-2.12,14.47,8.35,6.78,16.9,13.31,25.55,19.7,1.57,1.16,4.73,2.2,5.9,1.42C416.48,461.44,418.27,458.52,420.85,455.56Zm-7.33,169.19c-2-2.36-3.46-5.24-5.67-6.13-1.9-.78-5.28,0-7.05,1.34-7.32,5.58-14.29,11.62-21.35,17.54a16.69,16.69,0,0,0-3.58,3.59c-2.71,4.35-1.53,8.62,1.85,11.74,1.38,1.28,5.45,1.77,6.74.72,8.59-7,16.84-14.51,25-22.06C411.12,630,411.92,627.47,413.52,624.75ZM660,454c2.42,3.06,4.12,6.28,6.78,8.06,1.08.73,4.5-1.34,6.43-2.73,3.66-2.64,7-5.67,10.49-8.61,4.58-3.92,9.25-7.76,13.61-11.92,4-3.78,1.24-7.29-1.27-10.39-2-2.52-4.54-3.07-7.35-.7-8.06,6.79-16.26,13.41-24.27,20.26C662.88,449.29,661.92,451.35,660,454ZM456.1,416.27c-1.58-3.68-2.3-6-3.53-8.11-3.37-5.65-7-11.11-10.42-16.75-2.24-3.72-4.89-5.75-9.21-3.3s-5.94,6.47-3.61,10.77c3.75,6.94,7.92,13.66,11.85,20.51,1.72,3,4,5.78,7.54,3.75C451.64,421.47,453.8,418.48,456.1,416.27Zm168-.6c2.05,2.16,4,5.19,6.76,6.68,1.16.62,4.79-1.51,6.06-3.28,4.83-6.72,9.26-13.74,13.64-20.78,2.33-3.73,1.77-7.34-2-9.85s-7.33-1.24-9.77,2.29c-4.29,6.2-8.38,12.55-12.42,18.91C625.53,411,625.21,412.74,624.14,415.67Z"/><path class="cls-1" d="M360.79,550.3c-7.35,0-14.7.05-22.05,0a8.47,8.47,0,0,1-8.41-8.6c0-4.24,3.72-7.73,8.56-7.67q22.62.29,45.22.77c5.1.11,9,4.11,8.66,8.41-.32,3.78-4.85,7.29-9.37,7.29H360.79Z"/><path class="cls-1" d="M343.44,597.54c-.33-3.95,1.78-6,5.87-7.26,11.71-3.57,23.3-7.49,34.91-11.37,5.65-1.89,9.47-.65,11.25,4S395,591,389.37,593c-11.68,4.28-23.34,8.61-35,12.88C347.13,608.55,343.36,605.76,343.44,597.54Z"/><path class="cls-1" d="M354.83,475.77c2.36.72,3.29.93,4.16,1.28,10.79,4.42,21.64,8.68,32.32,13.33,7.1,3.1,8.41,9.15,3.07,13.6-1.45,1.2-4.33,2-6,1.43-11.52-4.08-22.93-8.48-34.29-13-3.7-1.47-6-4.47-4.3-8.54C351.05,480.83,353.28,478.2,354.83,475.77Z"/><path class="cls-1" d="M420.85,455.56c-2.58,3-4.37,5.88-7,7.59-1.17.78-4.33-.26-5.9-1.42-8.65-6.39-17.2-12.92-25.55-19.7-4.69-3.81-3.45-12.22,2.12-14.47,1.47-.59,4.11.23,5.53,1.3q12.66,9.56,24.92,19.59C417.05,450.13,418.45,452.59,420.85,455.56Z"/><path class="cls-1" d="M456.1,416.27c-2.3,2.21-4.46,5.2-7.38,6.87-3.57,2-5.82-.74-7.54-3.75-3.93-6.85-8.1-13.57-11.85-20.51-2.33-4.3-.78-8.29,3.61-10.77s7-.42,9.21,3.3c3.38,5.64,7.05,11.1,10.42,16.75C453.8,410.22,454.52,412.59,456.1,416.27Z"/></svg>